<svg xmlns="http://www.w3.org/2000/svg" xmlns:rdkit="http://www.rdkit.org/xml" xmlns:xlink="http://www.w3.org/1999/xlink" version="1.1" baseProfile="full" xml:space="preserve" width="1050px" height="350px" viewBox="0 0 1050 350">
<!-- END OF HEADER -->
<rect style="opacity:1.0;fill:#FFFFFF;stroke:none" width="350.0" height="350.0" x="0.0" y="0.0"> </rect>
<path class="bond-0 atom-0 atom-1" d="M 228.4,197.0 L 210.5,184.1" style="fill:none;fill-rule:evenodd;stroke:#000000;stroke-width:2.0px;stroke-linecap:butt;stroke-linejoin:miter;stroke-opacity:1"/>
<path class="bond-0 atom-0 atom-1" d="M 228.8,193.2 L 214.0,182.6" style="fill:none;fill-rule:evenodd;stroke:#000000;stroke-width:2.0px;stroke-linecap:butt;stroke-linejoin:miter;stroke-opacity:1"/>
<path class="bond-1 atom-1 atom-2" d="M 210.5,184.1 L 212.7,162.2" style="fill:none;fill-rule:evenodd;stroke:#000000;stroke-width:2.0px;stroke-linecap:butt;stroke-linejoin:miter;stroke-opacity:1"/>
<path class="bond-2 atom-2 atom-3" d="M 212.7,162.2 L 205.5,157.1" style="fill:none;fill-rule:evenodd;stroke:#000000;stroke-width:2.0px;stroke-linecap:butt;stroke-linejoin:miter;stroke-opacity:1"/>
<path class="bond-2 atom-2 atom-3" d="M 205.5,157.1 L 198.3,151.9" style="fill:none;fill-rule:evenodd;stroke:#FF0000;stroke-width:2.0px;stroke-linecap:butt;stroke-linejoin:miter;stroke-opacity:1"/>
<path class="bond-3 atom-3 atom-4" d="M 191.1,151.0 L 182.9,154.7" style="fill:none;fill-rule:evenodd;stroke:#FF0000;stroke-width:2.0px;stroke-linecap:butt;stroke-linejoin:miter;stroke-opacity:1"/>
<path class="bond-3 atom-3 atom-4" d="M 182.9,154.7 L 174.6,158.5" style="fill:none;fill-rule:evenodd;stroke:#000000;stroke-width:2.0px;stroke-linecap:butt;stroke-linejoin:miter;stroke-opacity:1"/>
<path class="bond-4 atom-4 atom-5" d="M 174.6,158.5 L 156.7,145.6" style="fill:none;fill-rule:evenodd;stroke:#000000;stroke-width:2.0px;stroke-linecap:butt;stroke-linejoin:miter;stroke-opacity:1"/>
<path class="bond-5 atom-5 atom-6" d="M 156.7,145.6 L 136.6,154.7" style="fill:none;fill-rule:evenodd;stroke:#000000;stroke-width:2.0px;stroke-linecap:butt;stroke-linejoin:miter;stroke-opacity:1"/>
<path class="bond-6 atom-6 atom-7" d="M 136.6,154.7 L 118.7,141.9" style="fill:none;fill-rule:evenodd;stroke:#000000;stroke-width:2.0px;stroke-linecap:butt;stroke-linejoin:miter;stroke-opacity:1"/>
<path class="bond-7 atom-7 atom-8" d="M 118.7,141.9 L 110.2,145.8" style="fill:none;fill-rule:evenodd;stroke:#000000;stroke-width:2.0px;stroke-linecap:butt;stroke-linejoin:miter;stroke-opacity:1"/>
<path class="bond-7 atom-7 atom-8" d="M 110.2,145.8 L 101.7,149.6" style="fill:none;fill-rule:evenodd;stroke:#0000FF;stroke-width:2.0px;stroke-linecap:butt;stroke-linejoin:miter;stroke-opacity:1"/>
<path class="bond-8 atom-8 atom-9" d="M 95.5,148.8 L 88.1,143.5" style="fill:none;fill-rule:evenodd;stroke:#0000FF;stroke-width:2.0px;stroke-linecap:butt;stroke-linejoin:miter;stroke-opacity:1"/>
<path class="bond-8 atom-8 atom-9" d="M 88.1,143.5 L 80.7,138.2" style="fill:none;fill-rule:evenodd;stroke:#000000;stroke-width:2.0px;stroke-linecap:butt;stroke-linejoin:miter;stroke-opacity:1"/>
<path class="bond-9 atom-9 atom-10" d="M 80.7,138.2 L 60.6,147.3" style="fill:none;fill-rule:evenodd;stroke:#000000;stroke-width:2.0px;stroke-linecap:butt;stroke-linejoin:miter;stroke-opacity:1"/>
<path class="bond-10 atom-10 atom-11" d="M 60.6,147.3 L 58.4,169.2" style="fill:none;fill-rule:evenodd;stroke:#000000;stroke-width:2.0px;stroke-linecap:butt;stroke-linejoin:miter;stroke-opacity:1"/>
<path class="bond-11 atom-11 atom-12" d="M 58.4,169.2 L 76.4,182.1" style="fill:none;fill-rule:evenodd;stroke:#000000;stroke-width:2.0px;stroke-linecap:butt;stroke-linejoin:miter;stroke-opacity:1"/>
<path class="bond-12 atom-12 atom-13" d="M 76.4,182.1 L 96.4,173.0" style="fill:none;fill-rule:evenodd;stroke:#000000;stroke-width:2.0px;stroke-linecap:butt;stroke-linejoin:miter;stroke-opacity:1"/>
<path class="bond-13 atom-2 atom-14" d="M 212.7,162.2 L 232.8,153.1" style="fill:none;fill-rule:evenodd;stroke:#000000;stroke-width:2.0px;stroke-linecap:butt;stroke-linejoin:miter;stroke-opacity:1"/>
<path class="bond-13 atom-2 atom-14" d="M 215.8,164.4 L 232.4,156.9" style="fill:none;fill-rule:evenodd;stroke:#000000;stroke-width:2.0px;stroke-linecap:butt;stroke-linejoin:miter;stroke-opacity:1"/>
<path class="bond-14 atom-14 atom-15" d="M 232.8,153.1 L 250.7,165.9" style="fill:none;fill-rule:evenodd;stroke:#000000;stroke-width:2.0px;stroke-linecap:butt;stroke-linejoin:miter;stroke-opacity:1"/>
<path class="bond-15 atom-15 atom-16" d="M 250.7,165.9 L 248.5,187.9" style="fill:none;fill-rule:evenodd;stroke:#000000;stroke-width:2.0px;stroke-linecap:butt;stroke-linejoin:miter;stroke-opacity:1"/>
<path class="bond-15 atom-15 atom-16" d="M 247.2,167.5 L 245.4,185.6" style="fill:none;fill-rule:evenodd;stroke:#000000;stroke-width:2.0px;stroke-linecap:butt;stroke-linejoin:miter;stroke-opacity:1"/>
<path class="bond-16 atom-15 atom-17" d="M 250.7,165.9 L 270.8,156.8" style="fill:none;fill-rule:evenodd;stroke:#000000;stroke-width:2.0px;stroke-linecap:butt;stroke-linejoin:miter;stroke-opacity:1"/>
<path class="bond-17 atom-17 atom-18" d="M 269.0,157.6 L 276.6,163.0" style="fill:none;fill-rule:evenodd;stroke:#000000;stroke-width:2.0px;stroke-linecap:butt;stroke-linejoin:miter;stroke-opacity:1"/>
<path class="bond-17 atom-17 atom-18" d="M 276.6,163.0 L 284.1,168.4" style="fill:none;fill-rule:evenodd;stroke:#FF0000;stroke-width:2.0px;stroke-linecap:butt;stroke-linejoin:miter;stroke-opacity:1"/>
<path class="bond-17 atom-17 atom-18" d="M 271.0,154.9 L 278.5,160.3" style="fill:none;fill-rule:evenodd;stroke:#000000;stroke-width:2.0px;stroke-linecap:butt;stroke-linejoin:miter;stroke-opacity:1"/>
<path class="bond-17 atom-17 atom-18" d="M 278.5,160.3 L 286.1,165.7" style="fill:none;fill-rule:evenodd;stroke:#FF0000;stroke-width:2.0px;stroke-linecap:butt;stroke-linejoin:miter;stroke-opacity:1"/>
<path class="bond-18 atom-17 atom-19" d="M 270.8,156.8 L 271.7,147.8" style="fill:none;fill-rule:evenodd;stroke:#000000;stroke-width:2.0px;stroke-linecap:butt;stroke-linejoin:miter;stroke-opacity:1"/>
<path class="bond-18 atom-17 atom-19" d="M 271.7,147.8 L 272.5,138.7" style="fill:none;fill-rule:evenodd;stroke:#0000FF;stroke-width:2.0px;stroke-linecap:butt;stroke-linejoin:miter;stroke-opacity:1"/>
<path class="bond-19 atom-19 atom-20" d="M 269.8,132.6 L 262.4,127.3" style="fill:none;fill-rule:evenodd;stroke:#0000FF;stroke-width:2.0px;stroke-linecap:butt;stroke-linejoin:miter;stroke-opacity:1"/>
<path class="bond-19 atom-19 atom-20" d="M 262.4,127.3 L 255.0,122.0" style="fill:none;fill-rule:evenodd;stroke:#000000;stroke-width:2.0px;stroke-linecap:butt;stroke-linejoin:miter;stroke-opacity:1"/>
<path class="bond-20 atom-20 atom-21" d="M 255.0,122.0 L 234.9,131.1" style="fill:none;fill-rule:evenodd;stroke:#000000;stroke-width:2.0px;stroke-linecap:butt;stroke-linejoin:miter;stroke-opacity:1"/>
<path class="bond-21 atom-16 atom-0" d="M 248.5,187.9 L 228.4,197.0" style="fill:none;fill-rule:evenodd;stroke:#000000;stroke-width:2.0px;stroke-linecap:butt;stroke-linejoin:miter;stroke-opacity:1"/>
<path class="bond-22 atom-13 atom-8" d="M 96.4,173.0 L 97.3,163.9" style="fill:none;fill-rule:evenodd;stroke:#000000;stroke-width:2.0px;stroke-linecap:butt;stroke-linejoin:miter;stroke-opacity:1"/>
<path class="bond-22 atom-13 atom-8" d="M 97.3,163.9 L 98.2,154.9" style="fill:none;fill-rule:evenodd;stroke:#0000FF;stroke-width:2.0px;stroke-linecap:butt;stroke-linejoin:miter;stroke-opacity:1"/>
<path class="bond-23 atom-21 atom-14" d="M 234.9,131.1 L 232.8,153.1" style="fill:none;fill-rule:evenodd;stroke:#000000;stroke-width:2.0px;stroke-linecap:butt;stroke-linejoin:miter;stroke-opacity:1"/>
<path d="M 227.5,196.3 L 228.4,197.0 L 229.5,196.5" style="fill:none;stroke:#000000;stroke-width:2.0px;stroke-linecap:butt;stroke-linejoin:miter;stroke-opacity:1;"/>
<path d="M 211.4,184.8 L 210.5,184.1 L 210.6,183.0" style="fill:none;stroke:#000000;stroke-width:2.0px;stroke-linecap:butt;stroke-linejoin:miter;stroke-opacity:1;"/>
<path d="M 175.1,158.3 L 174.6,158.5 L 173.7,157.8" style="fill:none;stroke:#000000;stroke-width:2.0px;stroke-linecap:butt;stroke-linejoin:miter;stroke-opacity:1;"/>
<path d="M 157.6,146.3 L 156.7,145.6 L 155.7,146.1" style="fill:none;stroke:#000000;stroke-width:2.0px;stroke-linecap:butt;stroke-linejoin:miter;stroke-opacity:1;"/>
<path d="M 137.6,154.3 L 136.6,154.7 L 135.7,154.1" style="fill:none;stroke:#000000;stroke-width:2.0px;stroke-linecap:butt;stroke-linejoin:miter;stroke-opacity:1;"/>
<path d="M 119.6,142.5 L 118.7,141.9 L 118.3,142.1" style="fill:none;stroke:#000000;stroke-width:2.0px;stroke-linecap:butt;stroke-linejoin:miter;stroke-opacity:1;"/>
<path d="M 81.0,138.4 L 80.7,138.2 L 79.7,138.6" style="fill:none;stroke:#000000;stroke-width:2.0px;stroke-linecap:butt;stroke-linejoin:miter;stroke-opacity:1;"/>
<path d="M 61.6,146.8 L 60.6,147.3 L 60.5,148.4" style="fill:none;stroke:#000000;stroke-width:2.0px;stroke-linecap:butt;stroke-linejoin:miter;stroke-opacity:1;"/>
<path d="M 58.5,168.1 L 58.4,169.2 L 59.3,169.9" style="fill:none;stroke:#000000;stroke-width:2.0px;stroke-linecap:butt;stroke-linejoin:miter;stroke-opacity:1;"/>
<path d="M 75.5,181.4 L 76.4,182.1 L 77.4,181.6" style="fill:none;stroke:#000000;stroke-width:2.0px;stroke-linecap:butt;stroke-linejoin:miter;stroke-opacity:1;"/>
<path d="M 95.4,173.4 L 96.4,173.0 L 96.5,172.5" style="fill:none;stroke:#000000;stroke-width:2.0px;stroke-linecap:butt;stroke-linejoin:miter;stroke-opacity:1;"/>
<path d="M 248.6,186.8 L 248.5,187.9 L 247.5,188.3" style="fill:none;stroke:#000000;stroke-width:2.0px;stroke-linecap:butt;stroke-linejoin:miter;stroke-opacity:1;"/>
<path d="M 269.8,157.3 L 270.8,156.8 L 270.8,156.4" style="fill:none;stroke:#000000;stroke-width:2.0px;stroke-linecap:butt;stroke-linejoin:miter;stroke-opacity:1;"/>
<path d="M 255.4,122.3 L 255.0,122.0 L 254.0,122.5" style="fill:none;stroke:#000000;stroke-width:2.0px;stroke-linecap:butt;stroke-linejoin:miter;stroke-opacity:1;"/>
<path d="M 235.9,130.7 L 234.9,131.1 L 234.8,132.2" style="fill:none;stroke:#000000;stroke-width:2.0px;stroke-linecap:butt;stroke-linejoin:miter;stroke-opacity:1;"/>
<path class="atom-3" d="M 191.9 149.4 Q 191.9 147.9, 192.6 147.0 Q 193.3 146.2, 194.7 146.2 Q 196.1 146.2, 196.9 147.0 Q 197.6 147.9, 197.6 149.4 Q 197.6 150.9, 196.8 151.8 Q 196.1 152.6, 194.7 152.6 Q 193.4 152.6, 192.6 151.8 Q 191.9 150.9, 191.9 149.4 M 194.7 151.9 Q 195.7 151.9, 196.2 151.3 Q 196.7 150.6, 196.7 149.4 Q 196.7 148.1, 196.2 147.5 Q 195.7 146.9, 194.7 146.9 Q 193.8 146.9, 193.3 147.5 Q 192.7 148.1, 192.7 149.4 Q 192.7 150.6, 193.3 151.3 Q 193.8 151.9, 194.7 151.9 " fill="#FF0000"/>
<path class="atom-8" d="M 97.2 147.9 L 99.3 151.2 Q 99.5 151.5, 99.8 152.1 Q 100.1 152.7, 100.1 152.7 L 100.1 147.9 L 101.0 147.9 L 101.0 154.1 L 100.1 154.1 L 97.9 150.5 Q 97.7 150.1, 97.4 149.6 Q 97.1 149.1, 97.0 149.0 L 97.0 154.1 L 96.2 154.1 L 96.2 147.9 L 97.2 147.9 " fill="#0000FF"/>
<path class="atom-18" d="M 285.8 169.7 Q 285.8 168.2, 286.6 167.3 Q 287.3 166.5, 288.7 166.5 Q 290.1 166.5, 290.8 167.3 Q 291.6 168.2, 291.6 169.7 Q 291.6 171.2, 290.8 172.0 Q 290.1 172.9, 288.7 172.9 Q 287.3 172.9, 286.6 172.0 Q 285.8 171.2, 285.8 169.7 M 288.7 172.2 Q 289.7 172.2, 290.2 171.6 Q 290.7 170.9, 290.7 169.7 Q 290.7 168.4, 290.2 167.8 Q 289.7 167.2, 288.7 167.2 Q 287.8 167.2, 287.2 167.8 Q 286.7 168.4, 286.7 169.7 Q 286.7 170.9, 287.2 171.6 Q 287.8 172.2, 288.7 172.2 " fill="#FF0000"/>
<path class="atom-19" d="M 271.5 131.7 L 273.6 135.0 Q 273.8 135.4, 274.1 136.0 Q 274.4 136.6, 274.5 136.6 L 274.5 131.7 L 275.3 131.7 L 275.3 138.0 L 274.4 138.0 L 272.2 134.4 Q 272.0 133.9, 271.7 133.5 Q 271.4 133.0, 271.4 132.8 L 271.4 138.0 L 270.6 138.0 L 270.6 131.7 L 271.5 131.7 " fill="#0000FF"/>
<path class="atom-19" d="M 276.5 131.7 L 277.4 131.7 L 277.4 134.4 L 280.5 134.4 L 280.5 131.7 L 281.4 131.7 L 281.4 138.0 L 280.5 138.0 L 280.5 135.1 L 277.4 135.1 L 277.4 138.0 L 276.5 138.0 L 276.5 131.7 " fill="#0000FF"/>
<path class="legend" d="M 116.5 332.3 L 115.1 332.3 L 113.9 323.0 L 110.8 332.3 L 109.3 332.3 L 106.2 323.0 L 105.0 332.3 L 103.6 332.3 L 105.0 321.0 L 106.9 321.0 L 110.1 330.1 L 113.2 321.0 L 115.1 321.0 L 116.5 332.3 " fill="#000000"/>
<path class="legend" d="M 118.2 330.1 Q 118.2 328.8, 119.2 328.1 Q 120.3 327.3, 122.2 327.3 L 123.5 327.3 L 123.5 327.0 Q 123.5 326.0, 123.0 325.6 Q 122.6 325.1, 121.6 325.1 Q 120.9 325.1, 120.4 325.3 Q 119.9 325.4, 119.1 325.7 L 118.7 324.7 Q 120.2 323.9, 121.6 323.9 Q 123.4 323.9, 124.2 324.7 Q 125.0 325.4, 125.0 327.0 L 125.0 332.3 L 123.8 332.3 Q 123.8 332.2, 123.7 332.0 Q 123.7 331.7, 123.6 331.3 Q 122.4 332.5, 120.9 332.5 Q 119.7 332.5, 118.9 331.8 Q 118.2 331.2, 118.2 330.1 M 119.7 330.1 Q 119.7 330.7, 120.1 331.0 Q 120.5 331.3, 121.2 331.3 Q 121.8 331.3, 122.4 331.0 Q 123.0 330.7, 123.5 330.2 L 123.5 328.5 L 122.3 328.5 Q 121.0 328.5, 120.4 328.9 Q 119.7 329.3, 119.7 330.1 " fill="#000000"/>
<path class="legend" d="M 129.8 328.1 L 127.0 324.1 L 128.8 324.1 L 130.8 326.9 L 132.7 324.1 L 134.3 324.1 L 131.6 328.0 L 134.6 332.3 L 132.8 332.3 L 130.6 329.2 L 128.4 332.3 L 126.8 332.3 L 129.8 328.1 " fill="#000000"/>
<path class="legend" d="" fill="#000000"/>
<path class="legend" d="M 141.3 321.0 L 148.0 321.0 L 148.0 322.3 L 142.8 322.3 L 142.8 325.7 L 147.5 325.7 L 147.5 327.0 L 142.8 327.0 L 142.8 331.0 L 148.2 331.0 L 148.2 332.3 L 141.3 332.3 L 141.3 321.0 " fill="#000000"/>
<path class="legend" d="M 149.6 326.6 Q 149.6 323.8, 150.9 322.3 Q 152.3 320.9, 154.8 320.9 Q 157.1 320.9, 158.3 322.5 L 157.3 323.4 Q 156.4 322.2, 154.8 322.2 Q 153.1 322.2, 152.1 323.3 Q 151.2 324.5, 151.2 326.6 Q 151.2 328.9, 152.2 330.0 Q 153.1 331.2, 154.9 331.2 Q 156.2 331.2, 157.6 330.4 L 158.1 331.6 Q 157.5 332.0, 156.6 332.2 Q 155.7 332.5, 154.7 332.5 Q 152.3 332.5, 150.9 330.9 Q 149.6 329.4, 149.6 326.6 " fill="#000000"/>
<path class="legend" d="M 159.6 321.0 L 166.3 321.0 L 166.3 322.3 L 161.1 322.3 L 161.1 325.7 L 165.8 325.7 L 165.8 327.0 L 161.1 327.0 L 161.1 332.3 L 159.6 332.3 L 159.6 321.0 " fill="#000000"/>
<path class="legend" d="M 170.7 321.0 Q 172.6 321.0, 173.6 321.9 Q 174.5 322.7, 174.5 324.3 Q 174.5 325.9, 173.5 326.8 Q 172.5 327.7, 170.7 327.7 L 168.9 327.7 L 168.9 332.3 L 167.3 332.3 L 167.3 321.0 L 170.7 321.0 M 170.7 326.4 Q 171.8 326.4, 172.4 325.8 Q 172.9 325.3, 172.9 324.3 Q 172.9 323.3, 172.4 322.8 Q 171.8 322.3, 170.7 322.3 L 168.9 322.3 L 168.9 326.4 L 170.7 326.4 " fill="#000000"/>
<path class="legend" d="M 183.3 328.4 L 184.6 328.4 L 184.6 329.7 L 183.3 329.7 L 183.3 332.3 L 181.8 332.3 L 181.8 329.7 L 175.9 329.7 L 175.9 328.7 L 180.9 321.0 L 183.3 321.0 L 183.3 328.4 M 177.8 328.4 L 181.8 328.4 L 181.8 322.0 L 177.8 328.4 " fill="#000000"/>
<path class="legend" d="" fill="#000000"/>
<path class="legend" d="M 192.0 326.6 L 197.9 326.6 L 197.9 327.8 L 192.0 327.8 L 192.0 326.6 " fill="#000000"/>
<path class="legend" d="" fill="#000000"/>
<path class="legend" d="M 209.4 332.4 Q 207.3 332.4, 206.3 330.9 Q 205.2 329.4, 205.2 326.6 Q 205.2 323.9, 206.3 322.4 Q 207.3 320.9, 209.4 320.9 Q 211.5 320.9, 212.5 322.4 Q 213.5 323.9, 213.5 326.6 Q 213.5 329.4, 212.5 330.9 Q 211.5 332.4, 209.4 332.4 M 209.4 331.2 Q 210.6 331.2, 211.3 330.0 Q 211.9 328.9, 211.9 326.6 Q 211.9 324.4, 211.3 323.3 Q 210.6 322.1, 209.4 322.1 Q 208.2 322.1, 207.5 323.3 Q 206.8 324.4, 206.8 326.6 Q 206.8 328.9, 207.5 330.0 Q 208.2 331.2, 209.4 331.2 " fill="#000000"/>
<path class="legend" d="M 215.2 330.7 L 216.8 330.7 L 216.8 332.3 L 215.2 332.3 L 215.2 330.7 " fill="#000000"/>
<path class="legend" d="M 223.9 326.3 Q 225.0 326.7, 225.5 327.4 Q 226.1 328.1, 226.1 329.2 Q 226.1 330.2, 225.6 330.9 Q 225.1 331.7, 224.2 332.1 Q 223.4 332.5, 222.2 332.5 Q 221.0 332.5, 220.1 332.1 Q 219.2 331.6, 218.5 330.8 L 219.4 329.8 Q 220.1 330.6, 220.7 330.9 Q 221.3 331.2, 222.2 331.2 Q 223.2 331.2, 223.8 330.6 Q 224.5 330.1, 224.5 329.2 Q 224.5 328.0, 223.8 327.5 Q 223.2 327.0, 221.8 327.0 L 221.0 327.0 L 221.0 325.8 L 221.7 325.8 Q 222.9 325.8, 223.6 325.3 Q 224.2 324.8, 224.2 323.7 Q 224.2 323.0, 223.7 322.6 Q 223.1 322.1, 222.2 322.1 Q 221.3 322.1, 220.7 322.5 Q 220.1 322.8, 219.7 323.7 L 218.6 323.1 Q 219.0 322.1, 219.9 321.5 Q 220.9 320.9, 222.2 320.9 Q 223.9 320.9, 224.9 321.6 Q 225.8 322.4, 225.8 323.7 Q 225.8 324.7, 225.3 325.3 Q 224.8 326.0, 223.9 326.3 " fill="#000000"/>
<path class="legend" d="M 231.8 325.2 Q 232.7 325.2, 233.6 325.7 Q 234.4 326.1, 234.8 326.9 Q 235.3 327.7, 235.3 328.7 Q 235.3 329.9, 234.7 330.7 Q 234.2 331.6, 233.2 332.0 Q 232.3 332.4, 231.3 332.4 Q 230.2 332.4, 229.3 332.1 Q 228.3 331.7, 227.6 330.9 L 228.6 329.9 Q 229.1 330.5, 229.8 330.8 Q 230.6 331.1, 231.3 331.1 Q 232.3 331.1, 233.0 330.5 Q 233.7 329.9, 233.7 328.8 Q 233.7 327.6, 233.0 327.0 Q 232.3 326.4, 231.2 326.4 Q 230.2 326.4, 229.1 326.9 L 228.2 326.4 L 228.8 321.0 L 234.6 321.0 L 234.4 322.3 L 230.1 322.3 L 229.8 325.6 Q 230.8 325.2, 231.8 325.2 " fill="#000000"/>
<path class="legend" d="M 244.1 328.4 L 245.4 328.4 L 245.4 329.7 L 244.1 329.7 L 244.1 332.3 L 242.5 332.3 L 242.5 329.7 L 236.7 329.7 L 236.7 328.7 L 241.7 321.0 L 244.1 321.0 L 244.1 328.4 M 238.5 328.4 L 242.5 328.4 L 242.5 322.0 L 238.5 328.4 " fill="#000000"/>
<path class="bond-0 atom-0 atom-1" d="M 635.5,174.4 L 614.6,181.5" style="fill:none;fill-rule:evenodd;stroke:#000000;stroke-width:2.0px;stroke-linecap:butt;stroke-linejoin:miter;stroke-opacity:1"/>
<path class="bond-0 atom-0 atom-1" d="M 632.6,171.9 L 615.4,177.8" style="fill:none;fill-rule:evenodd;stroke:#000000;stroke-width:2.0px;stroke-linecap:butt;stroke-linejoin:miter;stroke-opacity:1"/>
<path class="bond-1 atom-1 atom-2" d="M 614.6,181.5 L 598.0,167.0" style="fill:none;fill-rule:evenodd;stroke:#000000;stroke-width:2.0px;stroke-linecap:butt;stroke-linejoin:miter;stroke-opacity:1"/>
<path class="bond-2 atom-2 atom-3" d="M 598.0,167.0 L 589.4,169.9" style="fill:none;fill-rule:evenodd;stroke:#000000;stroke-width:2.0px;stroke-linecap:butt;stroke-linejoin:miter;stroke-opacity:1"/>
<path class="bond-2 atom-2 atom-3" d="M 589.4,169.9 L 580.7,172.9" style="fill:none;fill-rule:evenodd;stroke:#FF0000;stroke-width:2.0px;stroke-linecap:butt;stroke-linejoin:miter;stroke-opacity:1"/>
<path class="bond-3 atom-3 atom-4" d="M 573.5,170.9 L 567.0,165.2" style="fill:none;fill-rule:evenodd;stroke:#FF0000;stroke-width:2.0px;stroke-linecap:butt;stroke-linejoin:miter;stroke-opacity:1"/>
<path class="bond-3 atom-3 atom-4" d="M 567.0,165.2 L 560.5,159.5" style="fill:none;fill-rule:evenodd;stroke:#000000;stroke-width:2.0px;stroke-linecap:butt;stroke-linejoin:miter;stroke-opacity:1"/>
<path class="bond-4 atom-4 atom-5" d="M 560.5,159.5 L 539.7,166.7" style="fill:none;fill-rule:evenodd;stroke:#000000;stroke-width:2.0px;stroke-linecap:butt;stroke-linejoin:miter;stroke-opacity:1"/>
<path class="bond-5 atom-5 atom-6" d="M 538.2,165.4 L 536.4,174.7" style="fill:none;fill-rule:evenodd;stroke:#000000;stroke-width:2.0px;stroke-linecap:butt;stroke-linejoin:miter;stroke-opacity:1"/>
<path class="bond-5 atom-5 atom-6" d="M 536.4,174.7 L 534.5,184.1" style="fill:none;fill-rule:evenodd;stroke:#FF0000;stroke-width:2.0px;stroke-linecap:butt;stroke-linejoin:miter;stroke-opacity:1"/>
<path class="bond-5 atom-5 atom-6" d="M 541.5,166.0 L 539.6,175.4" style="fill:none;fill-rule:evenodd;stroke:#000000;stroke-width:2.0px;stroke-linecap:butt;stroke-linejoin:miter;stroke-opacity:1"/>
<path class="bond-5 atom-5 atom-6" d="M 539.6,175.4 L 537.8,184.7" style="fill:none;fill-rule:evenodd;stroke:#FF0000;stroke-width:2.0px;stroke-linecap:butt;stroke-linejoin:miter;stroke-opacity:1"/>
<path class="bond-6 atom-5 atom-7" d="M 539.7,166.7 L 532.9,160.7" style="fill:none;fill-rule:evenodd;stroke:#000000;stroke-width:2.0px;stroke-linecap:butt;stroke-linejoin:miter;stroke-opacity:1"/>
<path class="bond-6 atom-5 atom-7" d="M 532.9,160.7 L 526.2,154.8" style="fill:none;fill-rule:evenodd;stroke:#0000FF;stroke-width:2.0px;stroke-linecap:butt;stroke-linejoin:miter;stroke-opacity:1"/>
<path class="bond-7 atom-7 atom-8" d="M 520.0,153.2 L 511.1,156.2" style="fill:none;fill-rule:evenodd;stroke:#0000FF;stroke-width:2.0px;stroke-linecap:butt;stroke-linejoin:miter;stroke-opacity:1"/>
<path class="bond-7 atom-7 atom-8" d="M 511.1,156.2 L 502.2,159.2" style="fill:none;fill-rule:evenodd;stroke:#000000;stroke-width:2.0px;stroke-linecap:butt;stroke-linejoin:miter;stroke-opacity:1"/>
<path class="bond-8 atom-8 atom-9" d="M 502.2,159.2 L 485.6,144.7" style="fill:none;fill-rule:evenodd;stroke:#000000;stroke-width:2.0px;stroke-linecap:butt;stroke-linejoin:miter;stroke-opacity:1"/>
<path class="bond-8 atom-8 atom-9" d="M 498.6,160.5 L 484.9,148.4" style="fill:none;fill-rule:evenodd;stroke:#000000;stroke-width:2.0px;stroke-linecap:butt;stroke-linejoin:miter;stroke-opacity:1"/>
<path class="bond-9 atom-9 atom-10" d="M 485.6,144.7 L 464.7,151.8" style="fill:none;fill-rule:evenodd;stroke:#000000;stroke-width:2.0px;stroke-linecap:butt;stroke-linejoin:miter;stroke-opacity:1"/>
<path class="bond-10 atom-10 atom-11" d="M 464.7,151.8 L 460.4,173.4" style="fill:none;fill-rule:evenodd;stroke:#000000;stroke-width:2.0px;stroke-linecap:butt;stroke-linejoin:miter;stroke-opacity:1"/>
<path class="bond-10 atom-10 atom-11" d="M 467.6,154.3 L 464.0,172.2" style="fill:none;fill-rule:evenodd;stroke:#000000;stroke-width:2.0px;stroke-linecap:butt;stroke-linejoin:miter;stroke-opacity:1"/>
<path class="bond-11 atom-11 atom-12" d="M 460.4,173.4 L 439.6,180.5" style="fill:none;fill-rule:evenodd;stroke:#000000;stroke-width:2.0px;stroke-linecap:butt;stroke-linejoin:miter;stroke-opacity:1"/>
<path class="bond-12 atom-12 atom-13" d="M 439.6,180.5 L 432.8,174.6" style="fill:none;fill-rule:evenodd;stroke:#000000;stroke-width:2.0px;stroke-linecap:butt;stroke-linejoin:miter;stroke-opacity:1"/>
<path class="bond-12 atom-12 atom-13" d="M 432.8,174.6 L 426.1,168.7" style="fill:none;fill-rule:evenodd;stroke:#0000FF;stroke-width:2.0px;stroke-linecap:butt;stroke-linejoin:miter;stroke-opacity:1"/>
<path class="bond-13 atom-13 atom-14" d="M 423.7,162.2 L 425.5,153.3" style="fill:none;fill-rule:evenodd;stroke:#0000FF;stroke-width:2.0px;stroke-linecap:butt;stroke-linejoin:miter;stroke-opacity:1"/>
<path class="bond-13 atom-13 atom-14" d="M 425.5,153.3 L 427.2,144.4" style="fill:none;fill-rule:evenodd;stroke:#000000;stroke-width:2.0px;stroke-linecap:butt;stroke-linejoin:miter;stroke-opacity:1"/>
<path class="bond-14 atom-14 atom-15" d="M 427.2,144.4 L 410.6,129.9" style="fill:none;fill-rule:evenodd;stroke:#000000;stroke-width:2.0px;stroke-linecap:butt;stroke-linejoin:miter;stroke-opacity:1"/>
<path class="bond-15 atom-15 atom-16" d="M 410.6,129.9 L 389.8,137.0" style="fill:none;fill-rule:evenodd;stroke:#000000;stroke-width:2.0px;stroke-linecap:butt;stroke-linejoin:miter;stroke-opacity:1"/>
<path class="bond-16 atom-16 atom-17" d="M 389.8,137.0 L 385.5,158.6" style="fill:none;fill-rule:evenodd;stroke:#000000;stroke-width:2.0px;stroke-linecap:butt;stroke-linejoin:miter;stroke-opacity:1"/>
<path class="bond-17 atom-17 atom-18" d="M 385.5,158.6 L 402.1,173.1" style="fill:none;fill-rule:evenodd;stroke:#000000;stroke-width:2.0px;stroke-linecap:butt;stroke-linejoin:miter;stroke-opacity:1"/>
<path class="bond-18 atom-11 atom-19" d="M 460.4,173.4 L 477.0,188.0" style="fill:none;fill-rule:evenodd;stroke:#000000;stroke-width:2.0px;stroke-linecap:butt;stroke-linejoin:miter;stroke-opacity:1"/>
<path class="bond-19 atom-19 atom-20" d="M 477.0,188.0 L 497.9,180.9" style="fill:none;fill-rule:evenodd;stroke:#000000;stroke-width:2.0px;stroke-linecap:butt;stroke-linejoin:miter;stroke-opacity:1"/>
<path class="bond-19 atom-19 atom-20" d="M 477.8,184.2 L 495.0,178.3" style="fill:none;fill-rule:evenodd;stroke:#000000;stroke-width:2.0px;stroke-linecap:butt;stroke-linejoin:miter;stroke-opacity:1"/>
<path class="bond-20 atom-2 atom-21" d="M 598.0,167.0 L 602.3,145.3" style="fill:none;fill-rule:evenodd;stroke:#000000;stroke-width:2.0px;stroke-linecap:butt;stroke-linejoin:miter;stroke-opacity:1"/>
<path class="bond-20 atom-2 atom-21" d="M 601.6,165.7 L 605.2,147.9" style="fill:none;fill-rule:evenodd;stroke:#000000;stroke-width:2.0px;stroke-linecap:butt;stroke-linejoin:miter;stroke-opacity:1"/>
<path class="bond-21 atom-21 atom-22" d="M 602.3,145.3 L 594.6,138.6" style="fill:none;fill-rule:evenodd;stroke:#000000;stroke-width:2.0px;stroke-linecap:butt;stroke-linejoin:miter;stroke-opacity:1"/>
<path class="bond-21 atom-21 atom-22" d="M 594.6,138.6 L 586.8,131.8" style="fill:none;fill-rule:evenodd;stroke:#00CC00;stroke-width:2.0px;stroke-linecap:butt;stroke-linejoin:miter;stroke-opacity:1"/>
<path class="bond-22 atom-21 atom-23" d="M 602.3,145.3 L 623.2,138.2" style="fill:none;fill-rule:evenodd;stroke:#000000;stroke-width:2.0px;stroke-linecap:butt;stroke-linejoin:miter;stroke-opacity:1"/>
<path class="bond-23 atom-23 atom-24" d="M 623.2,138.2 L 639.8,152.8" style="fill:none;fill-rule:evenodd;stroke:#000000;stroke-width:2.0px;stroke-linecap:butt;stroke-linejoin:miter;stroke-opacity:1"/>
<path class="bond-23 atom-23 atom-24" d="M 622.4,142.0 L 636.2,154.0" style="fill:none;fill-rule:evenodd;stroke:#000000;stroke-width:2.0px;stroke-linecap:butt;stroke-linejoin:miter;stroke-opacity:1"/>
<path class="bond-24 atom-24 atom-25" d="M 639.8,152.8 L 648.7,149.7" style="fill:none;fill-rule:evenodd;stroke:#000000;stroke-width:2.0px;stroke-linecap:butt;stroke-linejoin:miter;stroke-opacity:1"/>
<path class="bond-24 atom-24 atom-25" d="M 648.7,149.7 L 657.5,146.7" style="fill:none;fill-rule:evenodd;stroke:#00CC00;stroke-width:2.0px;stroke-linecap:butt;stroke-linejoin:miter;stroke-opacity:1"/>
<path class="bond-25 atom-24 atom-0" d="M 639.8,152.8 L 635.5,174.4" style="fill:none;fill-rule:evenodd;stroke:#000000;stroke-width:2.0px;stroke-linecap:butt;stroke-linejoin:miter;stroke-opacity:1"/>
<path class="bond-26 atom-20 atom-8" d="M 497.9,180.9 L 502.2,159.2" style="fill:none;fill-rule:evenodd;stroke:#000000;stroke-width:2.0px;stroke-linecap:butt;stroke-linejoin:miter;stroke-opacity:1"/>
<path class="bond-27 atom-18 atom-13" d="M 402.1,173.1 L 411.0,170.1" style="fill:none;fill-rule:evenodd;stroke:#000000;stroke-width:2.0px;stroke-linecap:butt;stroke-linejoin:miter;stroke-opacity:1"/>
<path class="bond-27 atom-18 atom-13" d="M 411.0,170.1 L 419.9,167.1" style="fill:none;fill-rule:evenodd;stroke:#0000FF;stroke-width:2.0px;stroke-linecap:butt;stroke-linejoin:miter;stroke-opacity:1"/>
<path d="M 634.5,174.7 L 635.5,174.4 L 635.7,173.3" style="fill:none;stroke:#000000;stroke-width:2.0px;stroke-linecap:butt;stroke-linejoin:miter;stroke-opacity:1;"/>
<path d="M 615.7,181.1 L 614.6,181.5 L 613.8,180.8" style="fill:none;stroke:#000000;stroke-width:2.0px;stroke-linecap:butt;stroke-linejoin:miter;stroke-opacity:1;"/>
<path d="M 560.9,159.8 L 560.5,159.5 L 559.5,159.9" style="fill:none;stroke:#000000;stroke-width:2.0px;stroke-linecap:butt;stroke-linejoin:miter;stroke-opacity:1;"/>
<path d="M 540.7,166.3 L 539.7,166.7 L 539.3,166.4" style="fill:none;stroke:#000000;stroke-width:2.0px;stroke-linecap:butt;stroke-linejoin:miter;stroke-opacity:1;"/>
<path d="M 486.4,145.4 L 485.6,144.7 L 484.6,145.1" style="fill:none;stroke:#000000;stroke-width:2.0px;stroke-linecap:butt;stroke-linejoin:miter;stroke-opacity:1;"/>
<path d="M 465.8,151.4 L 464.7,151.8 L 464.5,152.9" style="fill:none;stroke:#000000;stroke-width:2.0px;stroke-linecap:butt;stroke-linejoin:miter;stroke-opacity:1;"/>
<path d="M 440.6,180.2 L 439.6,180.5 L 439.2,180.3" style="fill:none;stroke:#000000;stroke-width:2.0px;stroke-linecap:butt;stroke-linejoin:miter;stroke-opacity:1;"/>
<path d="M 427.2,144.8 L 427.2,144.4 L 426.4,143.7" style="fill:none;stroke:#000000;stroke-width:2.0px;stroke-linecap:butt;stroke-linejoin:miter;stroke-opacity:1;"/>
<path d="M 411.5,130.6 L 410.6,129.9 L 409.6,130.2" style="fill:none;stroke:#000000;stroke-width:2.0px;stroke-linecap:butt;stroke-linejoin:miter;stroke-opacity:1;"/>
<path d="M 390.8,136.6 L 389.8,137.0 L 389.6,138.0" style="fill:none;stroke:#000000;stroke-width:2.0px;stroke-linecap:butt;stroke-linejoin:miter;stroke-opacity:1;"/>
<path d="M 385.7,157.5 L 385.5,158.6 L 386.3,159.3" style="fill:none;stroke:#000000;stroke-width:2.0px;stroke-linecap:butt;stroke-linejoin:miter;stroke-opacity:1;"/>
<path d="M 401.2,172.4 L 402.1,173.1 L 402.5,173.0" style="fill:none;stroke:#000000;stroke-width:2.0px;stroke-linecap:butt;stroke-linejoin:miter;stroke-opacity:1;"/>
<path d="M 476.2,187.2 L 477.0,188.0 L 478.1,187.6" style="fill:none;stroke:#000000;stroke-width:2.0px;stroke-linecap:butt;stroke-linejoin:miter;stroke-opacity:1;"/>
<path d="M 496.9,181.2 L 497.9,180.9 L 498.1,179.8" style="fill:none;stroke:#000000;stroke-width:2.0px;stroke-linecap:butt;stroke-linejoin:miter;stroke-opacity:1;"/>
<path d="M 622.1,138.6 L 623.2,138.2 L 624.0,139.0" style="fill:none;stroke:#000000;stroke-width:2.0px;stroke-linecap:butt;stroke-linejoin:miter;stroke-opacity:1;"/>
<path class="atom-3" d="M 574.3 174.1 Q 574.3 172.6, 575.0 171.8 Q 575.8 170.9, 577.1 170.9 Q 578.5 170.9, 579.3 171.8 Q 580.0 172.6, 580.0 174.1 Q 580.0 175.6, 579.3 176.5 Q 578.5 177.3, 577.1 177.3 Q 575.8 177.3, 575.0 176.5 Q 574.3 175.6, 574.3 174.1 M 577.1 176.6 Q 578.1 176.6, 578.6 176.0 Q 579.1 175.3, 579.1 174.1 Q 579.1 172.9, 578.6 172.3 Q 578.1 171.6, 577.1 171.6 Q 576.2 171.6, 575.7 172.2 Q 575.2 172.9, 575.2 174.1 Q 575.2 175.4, 575.7 176.0 Q 576.2 176.6, 577.1 176.6 " fill="#FF0000"/>
<path class="atom-6" d="M 532.5 188.3 Q 532.5 186.8, 533.3 186.0 Q 534.0 185.1, 535.4 185.1 Q 536.8 185.1, 537.5 186.0 Q 538.2 186.8, 538.2 188.3 Q 538.2 189.8, 537.5 190.7 Q 536.7 191.5, 535.4 191.5 Q 534.0 191.5, 533.3 190.7 Q 532.5 189.8, 532.5 188.3 M 535.4 190.8 Q 536.3 190.8, 536.8 190.2 Q 537.4 189.6, 537.4 188.3 Q 537.4 187.1, 536.8 186.5 Q 536.3 185.8, 535.4 185.8 Q 534.4 185.8, 533.9 186.5 Q 533.4 187.1, 533.4 188.3 Q 533.4 189.6, 533.9 190.2 Q 534.4 190.8, 535.4 190.8 " fill="#FF0000"/>
<path class="atom-7" d="M 521.7 149.0 L 523.7 152.3 Q 523.9 152.6, 524.3 153.2 Q 524.6 153.8, 524.6 153.9 L 524.6 149.0 L 525.4 149.0 L 525.4 155.2 L 524.6 155.2 L 522.4 151.6 Q 522.1 151.2, 521.9 150.7 Q 521.6 150.2, 521.5 150.1 L 521.5 155.2 L 520.7 155.2 L 520.7 149.0 L 521.7 149.0 " fill="#0000FF"/>
<path class="atom-7" d="M 520.6 142.1 L 521.5 142.1 L 521.5 144.8 L 524.7 144.8 L 524.7 142.1 L 525.5 142.1 L 525.5 148.4 L 524.7 148.4 L 524.7 145.5 L 521.5 145.5 L 521.5 148.4 L 520.6 148.4 L 520.6 142.1 " fill="#0000FF"/>
<path class="atom-13" d="M 421.6 162.9 L 423.6 166.2 Q 423.8 166.5, 424.2 167.1 Q 424.5 167.7, 424.5 167.7 L 424.5 162.9 L 425.3 162.9 L 425.3 169.1 L 424.5 169.1 L 422.3 165.5 Q 422.0 165.1, 421.7 164.6 Q 421.5 164.1, 421.4 164.0 L 421.4 169.1 L 420.6 169.1 L 420.6 162.9 L 421.6 162.9 " fill="#0000FF"/>
<path class="atom-22" d="M 579.9 131.0 Q 579.9 129.5, 580.6 128.7 Q 581.3 127.8, 582.7 127.8 Q 584.0 127.8, 584.7 128.7 L 584.1 129.2 Q 583.6 128.6, 582.7 128.6 Q 581.8 128.6, 581.3 129.2 Q 580.8 129.8, 580.8 131.0 Q 580.8 132.3, 581.3 132.9 Q 581.8 133.5, 582.8 133.5 Q 583.5 133.5, 584.3 133.1 L 584.5 133.8 Q 584.2 134.0, 583.7 134.1 Q 583.2 134.2, 582.7 134.2 Q 581.3 134.2, 580.6 133.4 Q 579.9 132.6, 579.9 131.0 " fill="#00CC00"/>
<path class="atom-22" d="M 585.3 127.5 L 586.1 127.5 L 586.1 134.2 L 585.3 134.2 L 585.3 127.5 " fill="#00CC00"/>
<path class="atom-25" d="M 658.3 145.9 Q 658.3 144.3, 659.0 143.5 Q 659.7 142.7, 661.1 142.7 Q 662.4 142.7, 663.1 143.6 L 662.5 144.1 Q 662.0 143.4, 661.1 143.4 Q 660.2 143.4, 659.7 144.0 Q 659.2 144.7, 659.2 145.9 Q 659.2 147.1, 659.7 147.7 Q 660.2 148.4, 661.2 148.4 Q 661.9 148.4, 662.7 148.0 L 662.9 148.6 Q 662.6 148.8, 662.1 149.0 Q 661.6 149.1, 661.1 149.1 Q 659.7 149.1, 659.0 148.3 Q 658.3 147.4, 658.3 145.9 " fill="#00CC00"/>
<path class="atom-25" d="M 663.7 142.3 L 664.5 142.3 L 664.5 149.0 L 663.7 149.0 L 663.7 142.3 " fill="#00CC00"/>
<path class="legend" d="M 468.1 332.3 L 466.6 332.3 L 465.4 323.0 L 462.4 332.3 L 460.8 332.3 L 457.8 323.0 L 456.6 332.3 L 455.1 332.3 L 456.6 321.0 L 458.5 321.0 L 461.6 330.1 L 464.7 321.0 L 466.6 321.0 L 468.1 332.3 " fill="#000000"/>
<path class="legend" d="M 469.7 330.1 Q 469.7 328.8, 470.8 328.1 Q 471.8 327.3, 473.8 327.3 L 475.0 327.3 L 475.0 327.0 Q 475.0 326.0, 474.5 325.6 Q 474.1 325.1, 473.1 325.1 Q 472.5 325.1, 471.9 325.3 Q 471.4 325.4, 470.6 325.7 L 470.2 324.7 Q 471.7 323.9, 473.1 323.9 Q 474.9 323.9, 475.7 324.7 Q 476.5 325.4, 476.5 327.0 L 476.5 332.3 L 475.3 332.3 Q 475.3 332.2, 475.3 332.0 Q 475.2 331.7, 475.1 331.3 Q 474.0 332.5, 472.4 332.5 Q 471.2 332.5, 470.5 331.8 Q 469.7 331.2, 469.7 330.1 M 471.2 330.1 Q 471.2 330.7, 471.6 331.0 Q 472.0 331.3, 472.7 331.3 Q 473.3 331.3, 474.0 331.0 Q 474.6 330.7, 475.0 330.2 L 475.0 328.5 L 473.9 328.5 Q 472.5 328.5, 471.9 328.9 Q 471.2 329.3, 471.2 330.1 " fill="#000000"/>
<path class="legend" d="M 481.3 328.1 L 478.5 324.1 L 480.3 324.1 L 482.3 326.9 L 484.2 324.1 L 485.8 324.1 L 483.1 328.0 L 486.1 332.3 L 484.3 332.3 L 482.1 329.2 L 480.0 332.3 L 478.3 332.3 L 481.3 328.1 " fill="#000000"/>
<path class="legend" d="" fill="#000000"/>
<path class="legend" d="M 492.8 321.0 L 499.5 321.0 L 499.5 322.3 L 494.3 322.3 L 494.3 325.7 L 498.9 325.7 L 498.9 327.0 L 494.3 327.0 L 494.3 332.3 L 492.8 332.3 L 492.8 321.0 " fill="#000000"/>
<path class="legend" d="M 500.5 326.6 Q 500.5 323.8, 501.8 322.3 Q 503.1 320.9, 505.6 320.9 Q 508.0 320.9, 509.2 322.5 L 508.2 323.4 Q 507.2 322.2, 505.6 322.2 Q 503.9 322.2, 503.0 323.3 Q 502.1 324.5, 502.1 326.6 Q 502.1 328.9, 503.0 330.0 Q 504.0 331.2, 505.8 331.2 Q 507.0 331.2, 508.5 330.4 L 509.0 331.6 Q 508.4 332.0, 507.5 332.2 Q 506.6 332.5, 505.6 332.5 Q 503.1 332.5, 501.8 330.9 Q 500.5 329.4, 500.5 326.6 " fill="#000000"/>
<path class="legend" d="M 510.5 321.0 L 517.2 321.0 L 517.2 322.3 L 512.0 322.3 L 512.0 325.7 L 516.6 325.7 L 516.6 327.0 L 512.0 327.0 L 512.0 332.3 L 510.5 332.3 L 510.5 321.0 " fill="#000000"/>
<path class="legend" d="M 521.5 321.0 Q 523.4 321.0, 524.4 321.9 Q 525.4 322.7, 525.4 324.3 Q 525.4 325.9, 524.4 326.8 Q 523.4 327.7, 521.5 327.7 L 519.7 327.7 L 519.7 332.3 L 518.2 332.3 L 518.2 321.0 L 521.5 321.0 M 521.5 326.4 Q 522.6 326.4, 523.2 325.8 Q 523.8 325.3, 523.8 324.3 Q 523.8 323.3, 523.2 322.8 Q 522.6 322.3, 521.5 322.3 L 519.7 322.3 L 519.7 326.4 L 521.5 326.4 " fill="#000000"/>
<path class="legend" d="M 534.1 328.4 L 535.5 328.4 L 535.5 329.7 L 534.1 329.7 L 534.1 332.3 L 532.6 332.3 L 532.6 329.7 L 526.7 329.7 L 526.7 328.7 L 531.7 321.0 L 534.1 321.0 L 534.1 328.4 M 528.6 328.4 L 532.6 328.4 L 532.6 322.0 L 528.6 328.4 " fill="#000000"/>
<path class="legend" d="" fill="#000000"/>
<path class="legend" d="M 542.8 326.6 L 548.7 326.6 L 548.7 327.8 L 542.8 327.8 L 542.8 326.6 " fill="#000000"/>
<path class="legend" d="" fill="#000000"/>
<path class="legend" d="M 560.2 332.4 Q 558.1 332.4, 557.0 330.9 Q 556.0 329.4, 556.0 326.6 Q 556.0 323.9, 557.0 322.4 Q 558.1 320.9, 560.2 320.9 Q 562.3 320.9, 563.3 322.4 Q 564.3 323.9, 564.3 326.6 Q 564.3 329.4, 563.3 330.9 Q 562.2 332.4, 560.2 332.4 M 560.2 331.2 Q 561.4 331.2, 562.1 330.0 Q 562.7 328.9, 562.7 326.6 Q 562.7 324.4, 562.1 323.3 Q 561.4 322.1, 560.2 322.1 Q 558.9 322.1, 558.3 323.3 Q 557.6 324.4, 557.6 326.6 Q 557.6 328.9, 558.3 330.0 Q 558.9 331.2, 560.2 331.2 " fill="#000000"/>
<path class="legend" d="M 566.0 330.7 L 567.6 330.7 L 567.6 332.3 L 566.0 332.3 L 566.0 330.7 " fill="#000000"/>
<path class="legend" d="M 573.3 325.2 Q 574.3 325.2, 575.1 325.7 Q 575.9 326.1, 576.4 326.9 Q 576.9 327.7, 576.9 328.7 Q 576.9 329.9, 576.3 330.7 Q 575.7 331.6, 574.8 332.0 Q 573.9 332.4, 572.8 332.4 Q 571.8 332.4, 570.8 332.1 Q 569.9 331.7, 569.2 330.9 L 570.2 329.9 Q 570.7 330.5, 571.4 330.8 Q 572.1 331.1, 572.9 331.1 Q 573.9 331.1, 574.6 330.5 Q 575.3 329.9, 575.3 328.8 Q 575.3 327.6, 574.6 327.0 Q 573.9 326.4, 572.8 326.4 Q 571.8 326.4, 570.7 326.9 L 569.8 326.4 L 570.3 321.0 L 576.2 321.0 L 576.0 322.3 L 571.7 322.3 L 571.3 325.6 Q 572.3 325.2, 573.3 325.2 " fill="#000000"/>
<path class="legend" d="M 578.9 331.0 L 581.3 331.0 L 581.3 322.6 L 578.6 323.4 L 578.2 322.5 L 581.7 320.9 L 582.9 321.1 L 582.9 331.0 L 585.1 331.0 L 585.1 332.3 L 578.9 332.3 L 578.9 331.0 " fill="#000000"/>
<path class="legend" d="M 592.3 322.3 L 586.4 322.3 L 586.4 321.0 L 593.9 321.0 L 593.9 322.1 L 589.3 332.3 L 587.8 332.3 L 592.3 322.3 " fill="#000000"/>
<path class="bond-0 atom-0 atom-1" d="M 764.8,185.7 L 744.3,177.7" style="fill:none;fill-rule:evenodd;stroke:#000000;stroke-width:2.0px;stroke-linecap:butt;stroke-linejoin:miter;stroke-opacity:1"/>
<path class="bond-1 atom-1 atom-2" d="M 744.3,177.7 L 740.9,155.9" style="fill:none;fill-rule:evenodd;stroke:#000000;stroke-width:2.0px;stroke-linecap:butt;stroke-linejoin:miter;stroke-opacity:1"/>
<path class="bond-2 atom-2 atom-3" d="M 742.4,154.7 L 733.5,151.2" style="fill:none;fill-rule:evenodd;stroke:#000000;stroke-width:2.0px;stroke-linecap:butt;stroke-linejoin:miter;stroke-opacity:1"/>
<path class="bond-2 atom-2 atom-3" d="M 733.5,151.2 L 724.6,147.8" style="fill:none;fill-rule:evenodd;stroke:#FF0000;stroke-width:2.0px;stroke-linecap:butt;stroke-linejoin:miter;stroke-opacity:1"/>
<path class="bond-2 atom-2 atom-3" d="M 741.2,157.8 L 732.3,154.3" style="fill:none;fill-rule:evenodd;stroke:#000000;stroke-width:2.0px;stroke-linecap:butt;stroke-linejoin:miter;stroke-opacity:1"/>
<path class="bond-2 atom-2 atom-3" d="M 732.3,154.3 L 723.4,150.9" style="fill:none;fill-rule:evenodd;stroke:#FF0000;stroke-width:2.0px;stroke-linecap:butt;stroke-linejoin:miter;stroke-opacity:1"/>
<path class="bond-3 atom-2 atom-4" d="M 740.9,155.9 L 748.0,150.3" style="fill:none;fill-rule:evenodd;stroke:#000000;stroke-width:2.0px;stroke-linecap:butt;stroke-linejoin:miter;stroke-opacity:1"/>
<path class="bond-3 atom-2 atom-4" d="M 748.0,150.3 L 755.0,144.6" style="fill:none;fill-rule:evenodd;stroke:#0000FF;stroke-width:2.0px;stroke-linecap:butt;stroke-linejoin:miter;stroke-opacity:1"/>
<path class="bond-4 atom-4 atom-5" d="M 761.2,143.3 L 770.0,146.7" style="fill:none;fill-rule:evenodd;stroke:#0000FF;stroke-width:2.0px;stroke-linecap:butt;stroke-linejoin:miter;stroke-opacity:1"/>
<path class="bond-4 atom-4 atom-5" d="M 770.0,146.7 L 778.7,150.1" style="fill:none;fill-rule:evenodd;stroke:#000000;stroke-width:2.0px;stroke-linecap:butt;stroke-linejoin:miter;stroke-opacity:1"/>
<path class="bond-5 atom-5 atom-6" d="M 778.7,150.1 L 782.0,171.9" style="fill:none;fill-rule:evenodd;stroke:#000000;stroke-width:2.0px;stroke-linecap:butt;stroke-linejoin:miter;stroke-opacity:1"/>
<path class="bond-5 atom-5 atom-6" d="M 782.2,151.5 L 785.0,169.5" style="fill:none;fill-rule:evenodd;stroke:#000000;stroke-width:2.0px;stroke-linecap:butt;stroke-linejoin:miter;stroke-opacity:1"/>
<path class="bond-6 atom-6 atom-7" d="M 782.0,171.9 L 802.6,179.9" style="fill:none;fill-rule:evenodd;stroke:#000000;stroke-width:2.0px;stroke-linecap:butt;stroke-linejoin:miter;stroke-opacity:1"/>
<path class="bond-7 atom-7 atom-8" d="M 802.6,179.9 L 819.8,166.1" style="fill:none;fill-rule:evenodd;stroke:#000000;stroke-width:2.0px;stroke-linecap:butt;stroke-linejoin:miter;stroke-opacity:1"/>
<path class="bond-7 atom-7 atom-8" d="M 802.0,176.1 L 816.2,164.7" style="fill:none;fill-rule:evenodd;stroke:#000000;stroke-width:2.0px;stroke-linecap:butt;stroke-linejoin:miter;stroke-opacity:1"/>
<path class="bond-8 atom-8 atom-9" d="M 819.8,166.1 L 816.4,144.3" style="fill:none;fill-rule:evenodd;stroke:#000000;stroke-width:2.0px;stroke-linecap:butt;stroke-linejoin:miter;stroke-opacity:1"/>
<path class="bond-9 atom-9 atom-10" d="M 816.4,144.3 L 795.9,136.3" style="fill:none;fill-rule:evenodd;stroke:#000000;stroke-width:2.0px;stroke-linecap:butt;stroke-linejoin:miter;stroke-opacity:1"/>
<path class="bond-9 atom-9 atom-10" d="M 813.5,146.7 L 796.5,140.1" style="fill:none;fill-rule:evenodd;stroke:#000000;stroke-width:2.0px;stroke-linecap:butt;stroke-linejoin:miter;stroke-opacity:1"/>
<path class="bond-10 atom-9 atom-11" d="M 816.4,144.3 L 823.2,138.8" style="fill:none;fill-rule:evenodd;stroke:#000000;stroke-width:2.0px;stroke-linecap:butt;stroke-linejoin:miter;stroke-opacity:1"/>
<path class="bond-10 atom-9 atom-11" d="M 823.2,138.8 L 830.1,133.4" style="fill:none;fill-rule:evenodd;stroke:#FF0000;stroke-width:2.0px;stroke-linecap:butt;stroke-linejoin:miter;stroke-opacity:1"/>
<path class="bond-11 atom-11 atom-12" d="M 837.2,131.9 L 845.7,135.2" style="fill:none;fill-rule:evenodd;stroke:#FF0000;stroke-width:2.0px;stroke-linecap:butt;stroke-linejoin:miter;stroke-opacity:1"/>
<path class="bond-11 atom-11 atom-12" d="M 845.7,135.2 L 854.2,138.5" style="fill:none;fill-rule:evenodd;stroke:#000000;stroke-width:2.0px;stroke-linecap:butt;stroke-linejoin:miter;stroke-opacity:1"/>
<path class="bond-12 atom-12 atom-13" d="M 854.2,138.5 L 871.4,124.7" style="fill:none;fill-rule:evenodd;stroke:#000000;stroke-width:2.0px;stroke-linecap:butt;stroke-linejoin:miter;stroke-opacity:1"/>
<path class="bond-13 atom-13 atom-14" d="M 871.4,124.7 L 892.0,132.7" style="fill:none;fill-rule:evenodd;stroke:#000000;stroke-width:2.0px;stroke-linecap:butt;stroke-linejoin:miter;stroke-opacity:1"/>
<path class="bond-14 atom-14 atom-15" d="M 892.0,132.7 L 909.2,118.9" style="fill:none;fill-rule:evenodd;stroke:#000000;stroke-width:2.0px;stroke-linecap:butt;stroke-linejoin:miter;stroke-opacity:1"/>
<path class="bond-15 atom-15 atom-16" d="M 909.2,118.9 L 917.9,122.3" style="fill:none;fill-rule:evenodd;stroke:#000000;stroke-width:2.0px;stroke-linecap:butt;stroke-linejoin:miter;stroke-opacity:1"/>
<path class="bond-15 atom-15 atom-16" d="M 917.9,122.3 L 926.6,125.7" style="fill:none;fill-rule:evenodd;stroke:#0000FF;stroke-width:2.0px;stroke-linecap:butt;stroke-linejoin:miter;stroke-opacity:1"/>
<path class="bond-16 atom-16 atom-17" d="M 930.3,130.7 L 931.7,139.7" style="fill:none;fill-rule:evenodd;stroke:#0000FF;stroke-width:2.0px;stroke-linecap:butt;stroke-linejoin:miter;stroke-opacity:1"/>
<path class="bond-16 atom-16 atom-17" d="M 931.7,139.7 L 933.1,148.7" style="fill:none;fill-rule:evenodd;stroke:#000000;stroke-width:2.0px;stroke-linecap:butt;stroke-linejoin:miter;stroke-opacity:1"/>
<path class="bond-17 atom-17 atom-18" d="M 933.1,148.7 L 953.6,156.7" style="fill:none;fill-rule:evenodd;stroke:#000000;stroke-width:2.0px;stroke-linecap:butt;stroke-linejoin:miter;stroke-opacity:1"/>
<path class="bond-18 atom-18 atom-19" d="M 953.6,156.7 L 960.7,151.0" style="fill:none;fill-rule:evenodd;stroke:#000000;stroke-width:2.0px;stroke-linecap:butt;stroke-linejoin:miter;stroke-opacity:1"/>
<path class="bond-18 atom-18 atom-19" d="M 960.7,151.0 L 967.7,145.4" style="fill:none;fill-rule:evenodd;stroke:#0000FF;stroke-width:2.0px;stroke-linecap:butt;stroke-linejoin:miter;stroke-opacity:1"/>
<path class="bond-19 atom-19 atom-20" d="M 970.2,139.0 L 968.9,130.1" style="fill:none;fill-rule:evenodd;stroke:#0000FF;stroke-width:2.0px;stroke-linecap:butt;stroke-linejoin:miter;stroke-opacity:1"/>
<path class="bond-19 atom-19 atom-20" d="M 968.9,130.1 L 967.5,121.1" style="fill:none;fill-rule:evenodd;stroke:#000000;stroke-width:2.0px;stroke-linecap:butt;stroke-linejoin:miter;stroke-opacity:1"/>
<path class="bond-20 atom-20 atom-21" d="M 967.5,121.1 L 946.9,113.1" style="fill:none;fill-rule:evenodd;stroke:#000000;stroke-width:2.0px;stroke-linecap:butt;stroke-linejoin:miter;stroke-opacity:1"/>
<path class="bond-21 atom-19 atom-22" d="M 973.9,144.1 L 982.7,147.5" style="fill:none;fill-rule:evenodd;stroke:#0000FF;stroke-width:2.0px;stroke-linecap:butt;stroke-linejoin:miter;stroke-opacity:1"/>
<path class="bond-21 atom-19 atom-22" d="M 982.7,147.5 L 991.4,150.9" style="fill:none;fill-rule:evenodd;stroke:#000000;stroke-width:2.0px;stroke-linecap:butt;stroke-linejoin:miter;stroke-opacity:1"/>
<path class="bond-22 atom-22 atom-23" d="M 991.4,150.9 L 994.7,172.7" style="fill:none;fill-rule:evenodd;stroke:#000000;stroke-width:2.0px;stroke-linecap:butt;stroke-linejoin:miter;stroke-opacity:1"/>
<path class="bond-22 atom-22 atom-23" d="M 994.9,152.3 L 997.7,170.3" style="fill:none;fill-rule:evenodd;stroke:#000000;stroke-width:2.0px;stroke-linecap:butt;stroke-linejoin:miter;stroke-opacity:1"/>
<path class="bond-23 atom-23 atom-24" d="M 994.7,172.7 L 1015.3,180.7" style="fill:none;fill-rule:evenodd;stroke:#000000;stroke-width:2.0px;stroke-linecap:butt;stroke-linejoin:miter;stroke-opacity:1"/>
<path class="bond-24 atom-24 atom-25" d="M 1015.3,180.7 L 1032.5,166.9" style="fill:none;fill-rule:evenodd;stroke:#000000;stroke-width:2.0px;stroke-linecap:butt;stroke-linejoin:miter;stroke-opacity:1"/>
<path class="bond-24 atom-24 atom-25" d="M 1014.7,176.9 L 1028.9,165.5" style="fill:none;fill-rule:evenodd;stroke:#000000;stroke-width:2.0px;stroke-linecap:butt;stroke-linejoin:miter;stroke-opacity:1"/>
<path class="bond-25 atom-25 atom-26" d="M 1032.5,166.9 L 1029.1,145.1" style="fill:none;fill-rule:evenodd;stroke:#000000;stroke-width:2.0px;stroke-linecap:butt;stroke-linejoin:miter;stroke-opacity:1"/>
<path class="bond-26 atom-26 atom-27" d="M 1029.1,145.1 L 1008.6,137.1" style="fill:none;fill-rule:evenodd;stroke:#000000;stroke-width:2.0px;stroke-linecap:butt;stroke-linejoin:miter;stroke-opacity:1"/>
<path class="bond-26 atom-26 atom-27" d="M 1026.2,147.5 L 1009.2,140.9" style="fill:none;fill-rule:evenodd;stroke:#000000;stroke-width:2.0px;stroke-linecap:butt;stroke-linejoin:miter;stroke-opacity:1"/>
<path class="bond-27 atom-24 atom-28" d="M 1015.3,180.7 L 1016.7,189.7" style="fill:none;fill-rule:evenodd;stroke:#000000;stroke-width:2.0px;stroke-linecap:butt;stroke-linejoin:miter;stroke-opacity:1"/>
<path class="bond-27 atom-24 atom-28" d="M 1016.7,189.7 L 1018.1,198.8" style="fill:none;fill-rule:evenodd;stroke:#00CC00;stroke-width:2.0px;stroke-linecap:butt;stroke-linejoin:miter;stroke-opacity:1"/>
<path class="bond-28 atom-23 atom-29" d="M 994.7,172.7 L 986.7,179.1" style="fill:none;fill-rule:evenodd;stroke:#000000;stroke-width:2.0px;stroke-linecap:butt;stroke-linejoin:miter;stroke-opacity:1"/>
<path class="bond-28 atom-23 atom-29" d="M 986.7,179.1 L 978.7,185.6" style="fill:none;fill-rule:evenodd;stroke:#00CC00;stroke-width:2.0px;stroke-linecap:butt;stroke-linejoin:miter;stroke-opacity:1"/>
<path class="bond-29 atom-6 atom-0" d="M 782.0,171.9 L 764.8,185.7" style="fill:none;fill-rule:evenodd;stroke:#000000;stroke-width:2.0px;stroke-linecap:butt;stroke-linejoin:miter;stroke-opacity:1"/>
<path class="bond-30 atom-10 atom-5" d="M 795.9,136.3 L 778.7,150.1" style="fill:none;fill-rule:evenodd;stroke:#000000;stroke-width:2.0px;stroke-linecap:butt;stroke-linejoin:miter;stroke-opacity:1"/>
<path class="bond-31 atom-21 atom-16" d="M 946.9,113.1 L 939.9,118.7" style="fill:none;fill-rule:evenodd;stroke:#000000;stroke-width:2.0px;stroke-linecap:butt;stroke-linejoin:miter;stroke-opacity:1"/>
<path class="bond-31 atom-21 atom-16" d="M 939.9,118.7 L 932.8,124.4" style="fill:none;fill-rule:evenodd;stroke:#0000FF;stroke-width:2.0px;stroke-linecap:butt;stroke-linejoin:miter;stroke-opacity:1"/>
<path class="bond-32 atom-27 atom-22" d="M 1008.6,137.1 L 991.4,150.9" style="fill:none;fill-rule:evenodd;stroke:#000000;stroke-width:2.0px;stroke-linecap:butt;stroke-linejoin:miter;stroke-opacity:1"/>
<path d="M 763.8,185.3 L 764.8,185.7 L 765.7,185.0" style="fill:none;stroke:#000000;stroke-width:2.0px;stroke-linecap:butt;stroke-linejoin:miter;stroke-opacity:1;"/>
<path d="M 745.3,178.1 L 744.3,177.7 L 744.1,176.6" style="fill:none;stroke:#000000;stroke-width:2.0px;stroke-linecap:butt;stroke-linejoin:miter;stroke-opacity:1;"/>
<path d="M 741.1,157.0 L 740.9,155.9 L 741.3,155.6" style="fill:none;stroke:#000000;stroke-width:2.0px;stroke-linecap:butt;stroke-linejoin:miter;stroke-opacity:1;"/>
<path d="M 801.6,179.5 L 802.6,179.9 L 803.5,179.2" style="fill:none;stroke:#000000;stroke-width:2.0px;stroke-linecap:butt;stroke-linejoin:miter;stroke-opacity:1;"/>
<path d="M 818.9,166.8 L 819.8,166.1 L 819.6,165.0" style="fill:none;stroke:#000000;stroke-width:2.0px;stroke-linecap:butt;stroke-linejoin:miter;stroke-opacity:1;"/>
<path d="M 796.9,136.7 L 795.9,136.3 L 795.0,137.0" style="fill:none;stroke:#000000;stroke-width:2.0px;stroke-linecap:butt;stroke-linejoin:miter;stroke-opacity:1;"/>
<path d="M 853.8,138.3 L 854.2,138.5 L 855.1,137.8" style="fill:none;stroke:#000000;stroke-width:2.0px;stroke-linecap:butt;stroke-linejoin:miter;stroke-opacity:1;"/>
<path d="M 870.5,125.4 L 871.4,124.7 L 872.4,125.1" style="fill:none;stroke:#000000;stroke-width:2.0px;stroke-linecap:butt;stroke-linejoin:miter;stroke-opacity:1;"/>
<path d="M 890.9,132.3 L 892.0,132.7 L 892.8,132.0" style="fill:none;stroke:#000000;stroke-width:2.0px;stroke-linecap:butt;stroke-linejoin:miter;stroke-opacity:1;"/>
<path d="M 908.3,119.6 L 909.2,118.9 L 909.6,119.1" style="fill:none;stroke:#000000;stroke-width:2.0px;stroke-linecap:butt;stroke-linejoin:miter;stroke-opacity:1;"/>
<path d="M 933.0,148.2 L 933.1,148.7 L 934.1,149.1" style="fill:none;stroke:#000000;stroke-width:2.0px;stroke-linecap:butt;stroke-linejoin:miter;stroke-opacity:1;"/>
<path d="M 952.6,156.3 L 953.6,156.7 L 954.0,156.4" style="fill:none;stroke:#000000;stroke-width:2.0px;stroke-linecap:butt;stroke-linejoin:miter;stroke-opacity:1;"/>
<path d="M 967.6,121.5 L 967.5,121.1 L 966.5,120.7" style="fill:none;stroke:#000000;stroke-width:2.0px;stroke-linecap:butt;stroke-linejoin:miter;stroke-opacity:1;"/>
<path d="M 948.0,113.5 L 946.9,113.1 L 946.6,113.4" style="fill:none;stroke:#000000;stroke-width:2.0px;stroke-linecap:butt;stroke-linejoin:miter;stroke-opacity:1;"/>
<path d="M 1031.6,167.6 L 1032.5,166.9 L 1032.3,165.8" style="fill:none;stroke:#000000;stroke-width:2.0px;stroke-linecap:butt;stroke-linejoin:miter;stroke-opacity:1;"/>
<path d="M 1029.3,146.2 L 1029.1,145.1 L 1028.1,144.7" style="fill:none;stroke:#000000;stroke-width:2.0px;stroke-linecap:butt;stroke-linejoin:miter;stroke-opacity:1;"/>
<path d="M 1009.6,137.5 L 1008.6,137.1 L 1007.7,137.8" style="fill:none;stroke:#000000;stroke-width:2.0px;stroke-linecap:butt;stroke-linejoin:miter;stroke-opacity:1;"/>
<path class="atom-3" d="M 717.5 147.9 Q 717.5 146.4, 718.2 145.6 Q 719.0 144.8, 720.4 144.8 Q 721.8 144.8, 722.5 145.6 Q 723.2 146.4, 723.2 147.9 Q 723.2 149.5, 722.5 150.3 Q 721.7 151.2, 720.4 151.2 Q 719.0 151.2, 718.2 150.3 Q 717.5 149.5, 717.5 147.9 M 720.4 150.5 Q 721.3 150.5, 721.8 149.8 Q 722.4 149.2, 722.4 147.9 Q 722.4 146.7, 721.8 146.1 Q 721.3 145.5, 720.4 145.5 Q 719.4 145.5, 718.9 146.1 Q 718.4 146.7, 718.4 147.9 Q 718.4 149.2, 718.9 149.8 Q 719.4 150.5, 720.4 150.5 " fill="#FF0000"/>
<path class="atom-4" d="M 756.7 139.0 L 758.8 142.3 Q 759.0 142.6, 759.3 143.2 Q 759.6 143.8, 759.7 143.8 L 759.7 139.0 L 760.5 139.0 L 760.5 145.2 L 759.6 145.2 L 757.4 141.6 Q 757.2 141.2, 756.9 140.7 Q 756.6 140.2, 756.6 140.1 L 756.6 145.2 L 755.8 145.2 L 755.8 139.0 L 756.7 139.0 " fill="#0000FF"/>
<path class="atom-4" d="M 755.7 132.1 L 756.5 132.1 L 756.5 134.8 L 759.7 134.8 L 759.7 132.1 L 760.6 132.1 L 760.6 138.4 L 759.7 138.4 L 759.7 135.5 L 756.5 135.5 L 756.5 138.4 L 755.7 138.4 L 755.7 132.1 " fill="#0000FF"/>
<path class="atom-11" d="M 830.8 130.5 Q 830.8 129.0, 831.5 128.2 Q 832.3 127.3, 833.6 127.3 Q 835.0 127.3, 835.8 128.2 Q 836.5 129.0, 836.5 130.5 Q 836.5 132.0, 835.8 132.9 Q 835.0 133.8, 833.6 133.8 Q 832.3 133.8, 831.5 132.9 Q 830.8 132.0, 830.8 130.5 M 833.6 133.1 Q 834.6 133.1, 835.1 132.4 Q 835.6 131.8, 835.6 130.5 Q 835.6 129.3, 835.1 128.7 Q 834.6 128.1, 833.6 128.1 Q 832.7 128.1, 832.2 128.7 Q 831.7 129.3, 831.7 130.5 Q 831.7 131.8, 832.2 132.4 Q 832.7 133.1, 833.6 133.1 " fill="#FF0000"/>
<path class="atom-16" d="M 928.3 123.8 L 930.4 127.1 Q 930.6 127.4, 930.9 128.0 Q 931.2 128.6, 931.3 128.6 L 931.3 123.8 L 932.1 123.8 L 932.1 130.0 L 931.2 130.0 L 929.0 126.4 Q 928.8 126.0, 928.5 125.5 Q 928.2 125.0, 928.2 124.9 L 928.2 130.0 L 927.4 130.0 L 927.4 123.8 L 928.3 123.8 " fill="#0000FF"/>
<path class="atom-19" d="M 969.5 139.8 L 971.5 143.1 Q 971.7 143.4, 972.0 144.0 Q 972.4 144.6, 972.4 144.6 L 972.4 139.8 L 973.2 139.8 L 973.2 146.0 L 972.3 146.0 L 970.1 142.4 Q 969.9 142.0, 969.6 141.5 Q 969.4 141.0, 969.3 140.8 L 969.3 146.0 L 968.5 146.0 L 968.5 139.8 L 969.5 139.8 " fill="#0000FF"/>
<path class="atom-28" d="M 1016.2 202.7 Q 1016.2 201.1, 1017.0 200.3 Q 1017.7 199.5, 1019.1 199.5 Q 1020.4 199.5, 1021.1 200.4 L 1020.5 200.9 Q 1020.0 200.2, 1019.1 200.2 Q 1018.1 200.2, 1017.6 200.9 Q 1017.1 201.5, 1017.1 202.7 Q 1017.1 203.9, 1017.7 204.6 Q 1018.2 205.2, 1019.2 205.2 Q 1019.9 205.2, 1020.7 204.8 L 1020.9 205.5 Q 1020.6 205.7, 1020.1 205.8 Q 1019.6 205.9, 1019.1 205.9 Q 1017.7 205.9, 1017.0 205.1 Q 1016.2 204.3, 1016.2 202.7 " fill="#00CC00"/>
<path class="atom-28" d="M 1021.7 199.1 L 1022.5 199.1 L 1022.5 205.8 L 1021.7 205.8 L 1021.7 199.1 " fill="#00CC00"/>
<path class="atom-29" d="M 971.7 186.7 Q 971.7 185.2, 972.4 184.3 Q 973.1 183.5, 974.5 183.5 Q 975.8 183.5, 976.5 184.4 L 975.9 184.9 Q 975.4 184.2, 974.5 184.2 Q 973.6 184.2, 973.1 184.9 Q 972.6 185.5, 972.6 186.7 Q 972.6 187.9, 973.1 188.6 Q 973.6 189.2, 974.6 189.2 Q 975.3 189.2, 976.1 188.8 L 976.4 189.5 Q 976.0 189.7, 975.5 189.8 Q 975.0 189.9, 974.5 189.9 Q 973.1 189.9, 972.4 189.1 Q 971.7 188.3, 971.7 186.7 " fill="#00CC00"/>
<path class="atom-29" d="M 977.1 183.1 L 977.9 183.1 L 977.9 189.8 L 977.1 189.8 L 977.1 183.1 " fill="#00CC00"/>
<path class="legend" d="M 797.2 328.6 L 796.0 325.3 L 791.5 325.3 L 790.3 328.6 L 788.8 328.6 L 792.7 317.3 L 794.6 317.3 L 798.6 328.6 L 797.2 328.6 M 791.9 324.0 L 795.5 324.0 L 793.7 318.8 L 791.9 324.0 " fill="#000000"/>
<path class="legend" d="M 800.6 320.4 L 800.8 321.5 Q 801.6 320.2, 803.1 320.2 Q 803.5 320.2, 804.1 320.4 L 803.9 321.7 Q 803.2 321.6, 802.8 321.6 Q 802.1 321.6, 801.7 321.8 Q 801.2 322.1, 800.9 322.7 L 800.9 328.6 L 799.4 328.6 L 799.4 320.4 L 800.6 320.4 " fill="#000000"/>
<path class="legend" d="M 804.9 317.3 L 806.4 317.3 L 806.4 318.6 L 804.9 318.6 L 804.9 317.3 M 804.9 320.4 L 806.4 320.4 L 806.4 328.6 L 804.9 328.6 L 804.9 320.4 " fill="#000000"/>
<path class="legend" d="M 812.1 320.2 Q 813.9 320.2, 814.8 321.3 Q 815.8 322.3, 815.8 324.3 Q 815.8 326.4, 814.6 327.6 Q 813.5 328.7, 811.5 328.7 Q 810.6 328.7, 809.8 328.5 L 809.8 332.5 L 808.3 332.5 L 808.3 320.4 L 809.5 320.4 L 809.7 321.3 Q 810.2 320.8, 810.8 320.5 Q 811.4 320.2, 812.1 320.2 M 811.5 327.5 Q 812.8 327.5, 813.5 326.7 Q 814.2 325.8, 814.2 324.3 Q 814.2 322.9, 813.6 322.2 Q 813.1 321.4, 812.0 321.4 Q 811.2 321.4, 810.6 321.8 Q 810.1 322.3, 809.8 323.0 L 809.8 327.3 Q 810.6 327.5, 811.5 327.5 " fill="#000000"/>
<path class="legend" d="M 817.0 317.3 L 818.5 317.3 L 818.5 318.6 L 817.0 318.6 L 817.0 317.3 M 817.0 320.4 L 818.5 320.4 L 818.5 328.6 L 817.0 328.6 L 817.0 320.4 " fill="#000000"/>
<path class="legend" d="M 824.3 320.2 Q 826.0 320.2, 826.9 321.3 Q 827.9 322.3, 827.9 324.3 Q 827.9 326.4, 826.7 327.6 Q 825.6 328.7, 823.7 328.7 Q 822.7 328.7, 821.9 328.5 L 821.9 332.5 L 820.4 332.5 L 820.4 320.4 L 821.7 320.4 L 821.8 321.3 Q 822.3 320.8, 822.9 320.5 Q 823.5 320.2, 824.3 320.2 M 823.6 327.5 Q 824.9 327.5, 825.6 326.7 Q 826.3 325.8, 826.3 324.3 Q 826.3 322.9, 825.8 322.2 Q 825.2 321.4, 824.2 321.4 Q 823.4 321.4, 822.8 321.8 Q 822.2 322.3, 821.9 323.0 L 821.9 327.3 Q 822.8 327.5, 823.6 327.5 " fill="#000000"/>
<path class="legend" d="M 830.4 320.4 L 830.6 321.5 Q 831.4 320.2, 832.8 320.2 Q 833.3 320.2, 833.9 320.4 L 833.6 321.7 Q 833.0 321.6, 832.6 321.6 Q 831.9 321.6, 831.4 321.8 Q 831.0 322.1, 830.7 322.7 L 830.7 328.6 L 829.2 328.6 L 829.2 320.4 L 830.4 320.4 " fill="#000000"/>
<path class="legend" d="M 834.7 326.4 Q 834.7 325.0, 835.7 324.3 Q 836.8 323.6, 838.7 323.6 L 839.9 323.6 L 839.9 323.3 Q 839.9 322.3, 839.5 321.8 Q 839.1 321.4, 838.1 321.4 Q 837.4 321.4, 836.9 321.5 Q 836.4 321.6, 835.6 322.0 L 835.1 320.9 Q 836.6 320.2, 838.1 320.2 Q 839.8 320.2, 840.6 321.0 Q 841.4 321.7, 841.4 323.3 L 841.4 328.6 L 840.3 328.6 Q 840.3 328.5, 840.2 328.3 Q 840.2 328.0, 840.1 327.6 Q 838.9 328.8, 837.4 328.8 Q 836.1 328.8, 835.4 328.1 Q 834.7 327.5, 834.7 326.4 M 836.2 326.3 Q 836.2 326.9, 836.6 327.3 Q 836.9 327.6, 837.7 327.6 Q 838.3 327.6, 838.9 327.3 Q 839.5 327.0, 839.9 326.5 L 839.9 324.7 L 838.8 324.7 Q 837.5 324.7, 836.8 325.1 Q 836.2 325.5, 836.2 326.3 " fill="#000000"/>
<path class="legend" d="M 845.0 327.4 L 849.6 327.4 L 849.6 328.6 L 843.2 328.6 L 843.2 327.6 L 847.6 321.5 L 843.5 321.5 L 843.5 320.4 L 849.4 320.4 L 849.4 321.3 L 845.0 327.4 " fill="#000000"/>
<path class="legend" d="M 850.7 324.5 Q 850.7 322.5, 851.7 321.3 Q 852.7 320.2, 854.6 320.2 Q 856.5 320.2, 857.5 321.3 Q 858.5 322.5, 858.5 324.5 Q 858.5 326.5, 857.5 327.6 Q 856.5 328.7, 854.6 328.7 Q 852.7 328.7, 851.7 327.6 Q 850.7 326.5, 850.7 324.5 M 852.2 324.5 Q 852.2 326.0, 852.8 326.7 Q 853.4 327.5, 854.6 327.5 Q 855.7 327.5, 856.3 326.7 Q 856.9 326.0, 856.9 324.5 Q 856.9 322.9, 856.3 322.2 Q 855.7 321.4, 854.6 321.4 Q 853.4 321.4, 852.8 322.2 Q 852.2 322.9, 852.2 324.5 " fill="#000000"/>
<path class="legend" d="M 859.8 316.4 L 861.2 316.4 L 861.2 328.6 L 859.8 328.6 L 859.8 316.4 " fill="#000000"/>
<path class="legend" d="M 863.2 324.5 Q 863.2 322.4, 864.2 321.3 Q 865.2 320.2, 867.0 320.2 Q 868.8 320.2, 869.6 321.3 Q 870.5 322.4, 870.5 324.4 L 870.5 324.7 L 864.7 324.7 Q 864.8 326.1, 865.4 326.8 Q 866.0 327.5, 867.2 327.5 Q 867.8 327.5, 868.4 327.4 Q 869.0 327.2, 869.7 326.9 L 870.1 327.9 Q 869.3 328.3, 868.6 328.5 Q 867.9 328.7, 867.1 328.7 Q 865.2 328.7, 864.2 327.6 Q 863.2 326.5, 863.2 324.5 M 867.0 321.4 Q 866.1 321.4, 865.5 321.9 Q 865.0 322.5, 864.8 323.5 L 868.9 323.5 Q 868.8 322.4, 868.3 321.9 Q 867.9 321.4, 867.0 321.4 " fill="#000000"/>
<path class="legend" d="" fill="#000000"/>
<path class="legend" d="M 877.5 322.8 L 883.4 322.8 L 883.4 324.1 L 877.5 324.1 L 877.5 322.8 " fill="#000000"/>
<path class="legend" d="" fill="#000000"/>
<path class="legend" d="M 896.8 328.6 L 894.0 323.9 L 894.0 323.9 L 892.2 323.9 L 892.2 328.6 L 890.6 328.6 L 890.6 317.3 L 894.0 317.3 Q 895.9 317.3, 896.9 318.1 Q 897.9 319.0, 897.9 320.6 Q 897.9 321.8, 897.3 322.6 Q 896.7 323.4, 895.6 323.7 L 898.4 328.6 L 896.8 328.6 M 892.2 322.6 L 894.0 322.6 Q 895.1 322.6, 895.7 322.1 Q 896.3 321.6, 896.3 320.6 Q 896.3 319.6, 895.7 319.1 Q 895.1 318.5, 894.0 318.5 L 892.2 318.5 L 892.2 322.6 " fill="#000000"/>
<path class="legend" d="M 899.4 324.5 Q 899.4 322.4, 900.4 321.3 Q 901.4 320.2, 903.2 320.2 Q 905.0 320.2, 905.8 321.3 Q 906.7 322.4, 906.7 324.4 L 906.7 324.7 L 900.9 324.7 Q 900.9 326.1, 901.6 326.8 Q 902.2 327.5, 903.4 327.5 Q 904.0 327.5, 904.6 327.4 Q 905.2 327.2, 905.9 326.9 L 906.3 327.9 Q 905.5 328.3, 904.8 328.5 Q 904.1 328.7, 903.3 328.7 Q 901.4 328.7, 900.4 327.6 Q 899.4 326.5, 899.4 324.5 M 903.2 321.4 Q 902.3 321.4, 901.7 321.9 Q 901.2 322.5, 901.0 323.5 L 905.1 323.5 Q 905.0 322.4, 904.5 321.9 Q 904.1 321.4, 903.2 321.4 " fill="#000000"/>
<path class="legend" d="M 907.8 321.5 L 907.8 320.4 L 909.3 320.4 L 909.3 319.1 Q 909.3 317.7, 910.0 317.1 Q 910.7 316.4, 911.9 316.4 Q 912.4 316.4, 912.9 316.5 Q 913.3 316.6, 913.9 316.9 L 913.4 317.9 Q 912.7 317.6, 912.0 317.6 Q 911.4 317.6, 911.1 318.0 Q 910.8 318.4, 910.8 319.0 L 910.8 320.4 L 913.3 320.4 L 913.3 321.5 L 910.8 321.5 L 910.8 331.1 L 909.3 331.1 L 909.3 321.5 L 907.8 321.5 " fill="#000000"/>
<path class="legend" d="M 914.0 324.5 Q 914.0 322.4, 915.0 321.3 Q 916.0 320.2, 917.9 320.2 Q 919.7 320.2, 920.5 321.3 Q 921.3 322.4, 921.3 324.4 L 921.3 324.7 L 915.5 324.7 Q 915.6 326.1, 916.2 326.8 Q 916.8 327.5, 918.0 327.5 Q 918.6 327.5, 919.2 327.4 Q 919.8 327.2, 920.5 326.9 L 921.0 327.9 Q 920.1 328.3, 919.4 328.5 Q 918.7 328.7, 917.9 328.7 Q 916.0 328.7, 915.0 327.6 Q 914.0 326.5, 914.0 324.5 M 917.9 321.4 Q 916.9 321.4, 916.3 321.9 Q 915.8 322.5, 915.6 323.5 L 919.7 323.5 Q 919.6 322.4, 919.1 321.9 Q 918.7 321.4, 917.9 321.4 " fill="#000000"/>
<path class="legend" d="M 923.7 320.4 L 923.8 321.5 Q 924.7 320.2, 926.1 320.2 Q 926.6 320.2, 927.2 320.4 L 926.9 321.7 Q 926.2 321.6, 925.9 321.6 Q 925.2 321.6, 924.7 321.8 Q 924.3 322.1, 924.0 322.7 L 924.0 328.6 L 922.4 328.6 L 922.4 320.4 L 923.7 320.4 " fill="#000000"/>
<path class="legend" d="M 928.0 324.5 Q 928.0 322.4, 929.0 321.3 Q 930.0 320.2, 931.8 320.2 Q 933.6 320.2, 934.4 321.3 Q 935.2 322.4, 935.2 324.4 L 935.2 324.7 L 929.5 324.7 Q 929.5 326.1, 930.2 326.8 Q 930.8 327.5, 931.9 327.5 Q 932.6 327.5, 933.2 327.4 Q 933.8 327.2, 934.5 326.9 L 934.9 327.9 Q 934.1 328.3, 933.4 328.5 Q 932.6 328.7, 931.9 328.7 Q 930.0 328.7, 929.0 327.6 Q 928.0 326.5, 928.0 324.5 M 931.8 321.4 Q 930.9 321.4, 930.3 321.9 Q 929.7 322.5, 929.6 323.5 L 933.7 323.5 Q 933.5 322.4, 933.1 321.9 Q 932.7 321.4, 931.8 321.4 " fill="#000000"/>
<path class="legend" d="M 940.7 320.2 Q 942.0 320.2, 942.7 321.0 Q 943.4 321.7, 943.4 323.1 L 943.4 328.6 L 941.9 328.6 L 941.9 323.3 Q 941.9 322.3, 941.5 321.8 Q 941.1 321.4, 940.3 321.4 Q 939.6 321.4, 938.9 321.7 Q 938.3 322.1, 937.9 322.7 L 937.9 328.6 L 936.4 328.6 L 936.4 320.4 L 937.6 320.4 L 937.8 321.5 Q 938.9 320.2, 940.7 320.2 " fill="#000000"/>
<path class="legend" d="M 945.2 324.5 Q 945.2 322.5, 946.2 321.3 Q 947.2 320.2, 949.1 320.2 Q 951.0 320.2, 952.0 321.6 L 951.0 322.3 Q 950.6 321.9, 950.1 321.6 Q 949.7 321.4, 949.1 321.4 Q 948.0 321.4, 947.4 322.2 Q 946.7 322.9, 946.7 324.5 Q 946.7 326.0, 947.4 326.8 Q 948.0 327.5, 949.2 327.5 Q 949.9 327.5, 950.4 327.4 Q 950.8 327.2, 951.4 327.0 L 951.8 328.0 Q 950.6 328.7, 949.1 328.7 Q 947.2 328.7, 946.2 327.6 Q 945.2 326.4, 945.2 324.5 " fill="#000000"/>
<path class="legend" d="M 952.9 324.5 Q 952.9 322.4, 953.9 321.3 Q 954.9 320.2, 956.8 320.2 Q 958.6 320.2, 959.4 321.3 Q 960.2 322.4, 960.2 324.4 L 960.2 324.7 L 954.5 324.7 Q 954.5 326.1, 955.1 326.8 Q 955.7 327.5, 956.9 327.5 Q 957.5 327.5, 958.1 327.4 Q 958.7 327.2, 959.4 326.9 L 959.9 327.9 Q 959.1 328.3, 958.3 328.5 Q 957.6 328.7, 956.8 328.7 Q 955.0 328.7, 953.9 327.6 Q 952.9 326.5, 952.9 324.5 M 956.8 321.4 Q 955.8 321.4, 955.3 321.9 Q 954.7 322.5, 954.5 323.5 L 958.6 323.5 Q 958.5 322.4, 958.1 321.9 Q 957.6 321.4, 956.8 321.4 " fill="#000000"/>
</svg>